<?xml version="1.0" encoding="iso-8859-1"?>
<!-- Generator: Adobe Illustrator 19.0.0, SVG Export Plug-In . SVG Version: 6.00 Build 0)  -->
<svg version="1.1" id="Capa_1" xmlns="http://www.w3.org/2000/svg" xmlns:xlink="http://www.w3.org/1999/xlink" x="0px" y="0px"
	 viewBox="0 0 512 512" style="enable-background:new 0 0 512 512;" xml:space="preserve">
<g>
	<path style="fill:#4C8056;" d="M423.724,220.69v185.379c-0.029,9.739-7.916,17.626-17.655,17.655v52.966h-291.31v-52.966
		c-9.739-0.029-17.627-7.916-17.655-17.655V220.69c0.028-9.739,7.916-17.627,17.655-17.655v-52.966h291.31v52.966
		C415.808,203.063,423.696,210.951,423.724,220.69z"/>
	<path style="fill:#5E5F62;" d="M247.172,0h17.655c4.875,0,8.828,3.952,8.828,8.828v141.241h-35.31V8.828
		C238.345,3.952,242.297,0,247.172,0z"/>
	<path style="fill:#71C285;" d="M132.414,114.759H79.448c-9.739,0.028-17.627,7.916-17.655,17.655v361.931
		c0.029,9.739,7.916,17.627,17.655,17.655h52.966c9.739-0.029,17.627-7.916,17.655-17.655v-70.621
		c-9.739-0.029-17.627-7.916-17.655-17.655V220.69c0.028-9.739,7.916-17.627,17.655-17.655v-70.621
		C150.041,122.675,142.153,114.787,132.414,114.759z"/>
	<rect x="61.793" y="220.69" style="fill:#7ED09E;" width="70.621" height="185.379"/>
	<path style="fill:#71C285;" d="M432.552,114.759h-52.966c-9.739,0.028-17.627,7.916-17.655,17.655v70.621
		c9.739,0.028,17.627,7.916,17.655,17.655v185.379c-0.029,9.739-7.916,17.626-17.655,17.655v70.621
		c0.029,9.739,7.916,17.627,17.655,17.655h52.966c9.739-0.029,17.626-7.916,17.655-17.655V132.414
		C450.178,122.675,442.291,114.787,432.552,114.759z"/>
	<rect x="379.586" y="220.69" style="fill:#7ED09E;" width="70.621" height="185.379"/>
	<path style="fill:#71C285;" d="M185.379,229.517h141.241c9.751,0,17.655,7.904,17.655,17.655v132.414
		c0,9.751-7.904,17.655-17.655,17.655H185.379c-9.751,0-17.655-7.904-17.655-17.655V247.172
		C167.724,237.422,175.629,229.517,185.379,229.517z"/>
	<path style="fill:#7ED09E;" d="M238.345,141.241h35.31c4.875,0,8.828,3.952,8.828,8.828v44.138h-52.966v-44.138
		C229.517,145.194,233.469,141.241,238.345,141.241z"/>
	<path style="fill:#BBD1B5;" d="M256,264.828h52.966v26.483c0,9.751-7.904,17.655-17.655,17.655h-17.655
		c-9.751,0-17.655-7.905-17.655-17.655V264.828z"/>
	<g>
		<path style="fill:#4C8056;" d="M203.034,273.655c-2.341-0.001-4.587,0.929-6.243,2.585c-1.656,1.656-2.585,3.901-2.585,6.243
			v8.828c0,4.875,3.952,8.828,8.828,8.828c4.875,0,8.828-3.952,8.828-8.828v-8.828c0.001-2.341-0.929-4.587-2.585-6.243
			C207.622,274.584,205.376,273.655,203.034,273.655z"/>
		<path style="fill:#4C8056;" d="M203.034,308.966c-2.341-0.001-4.587,0.929-6.243,2.585c-1.656,1.656-2.585,3.901-2.585,6.243
			v8.828c0,4.875,3.952,8.828,8.828,8.828c4.875,0,8.828-3.952,8.828-8.828v-8.828c0.001-2.341-0.929-4.587-2.585-6.243
			C207.622,309.895,205.376,308.965,203.034,308.966z"/>
		<path style="fill:#4C8056;" d="M203.034,344.276c-2.341-0.001-4.587,0.929-6.243,2.585c-1.656,1.656-2.585,3.901-2.585,6.243
			v8.828c0,4.875,3.952,8.828,8.828,8.828c4.875,0,8.828-3.952,8.828-8.828v-8.828c0.001-2.341-0.929-4.587-2.585-6.243
			C207.622,345.205,205.376,344.275,203.034,344.276z"/>
	</g>
	<circle style="fill:#BBD1B5;" cx="282.483" cy="353.103" r="17.655"/>
	<g>
		<path style="fill:#71C285;" d="M211.862,432.552h8.828c9.751,0,17.655,7.904,17.655,17.655v26.483h-44.138v-26.483
			C194.207,440.456,202.111,432.552,211.862,432.552z"/>
		<path style="fill:#71C285;" d="M291.31,432.552h8.828c9.751,0,17.655,7.904,17.655,17.655v26.483h-44.138v-26.483
			C273.655,440.456,281.56,432.552,291.31,432.552z"/>
	</g>
	<g>
		<path style="fill:#4C8056;" d="M88.276,141.241c-2.341-0.001-4.587,0.929-6.243,2.585c-1.656,1.656-2.585,3.901-2.585,6.243
			v17.655c0,4.875,3.952,8.828,8.828,8.828c4.875,0,8.828-3.952,8.828-8.828v-17.655c0.001-2.341-0.929-4.587-2.585-6.243
			C92.863,142.171,90.617,141.241,88.276,141.241z"/>
		<path style="fill:#4C8056;" d="M114.759,141.241c-2.341-0.001-4.587,0.929-6.243,2.585c-1.656,1.656-2.585,3.901-2.585,6.243
			v17.655c0,4.875,3.952,8.828,8.828,8.828s8.828-3.952,8.828-8.828v-17.655c0.001-2.341-0.929-4.587-2.585-6.243
			C119.346,142.171,117.1,141.241,114.759,141.241z"/>
		<path style="fill:#4C8056;" d="M88.276,450.207c-2.341-0.001-4.587,0.929-6.243,2.585c-1.656,1.656-2.585,3.901-2.585,6.243
			v17.655c0,4.875,3.952,8.828,8.828,8.828c4.875,0,8.828-3.952,8.828-8.828v-17.655c0.001-2.341-0.929-4.587-2.585-6.243
			C92.863,451.136,90.617,450.206,88.276,450.207z"/>
		<path style="fill:#4C8056;" d="M114.759,450.207c-2.341-0.001-4.587,0.929-6.243,2.585c-1.656,1.656-2.585,3.901-2.585,6.243
			v17.655c0,4.875,3.952,8.828,8.828,8.828s8.828-3.952,8.828-8.828v-17.655c0.001-2.341-0.929-4.587-2.585-6.243
			C119.346,451.136,117.1,450.206,114.759,450.207z"/>
		<path style="fill:#4C8056;" d="M397.241,141.241c-2.341-0.001-4.587,0.929-6.243,2.585c-1.656,1.656-2.585,3.901-2.585,6.243
			v17.655c0,4.875,3.952,8.828,8.828,8.828c4.875,0,8.828-3.952,8.828-8.828v-17.655c0.001-2.341-0.929-4.587-2.585-6.243
			C401.828,142.171,399.583,141.241,397.241,141.241z"/>
		<path style="fill:#4C8056;" d="M423.724,141.241c-2.341-0.001-4.587,0.929-6.243,2.585c-1.656,1.656-2.585,3.901-2.585,6.243
			v17.655c0,4.875,3.952,8.828,8.828,8.828c4.875,0,8.828-3.952,8.828-8.828v-17.655c0.001-2.341-0.929-4.587-2.585-6.243
			C428.311,142.171,426.066,141.241,423.724,141.241z"/>
		<path style="fill:#4C8056;" d="M397.241,450.207c-2.341-0.001-4.587,0.929-6.243,2.585c-1.656,1.656-2.585,3.901-2.585,6.243
			v17.655c0,4.875,3.952,8.828,8.828,8.828c4.875,0,8.828-3.952,8.828-8.828v-17.655c0.001-2.341-0.929-4.587-2.585-6.243
			C401.828,451.136,399.583,450.206,397.241,450.207z"/>
		<path style="fill:#4C8056;" d="M423.724,450.207c-2.341-0.001-4.587,0.929-6.243,2.585c-1.656,1.656-2.585,3.901-2.585,6.243
			v17.655c0,4.875,3.952,8.828,8.828,8.828c4.875,0,8.828-3.952,8.828-8.828v-17.655c0.001-2.341-0.929-4.587-2.585-6.243
			C428.311,451.136,426.066,450.206,423.724,450.207z"/>
	</g>
	<g>
		<rect x="61.793" y="282.483" style="fill:#71C285;" width="70.621" height="52.966"/>
		<rect x="379.586" y="282.483" style="fill:#71C285;" width="70.621" height="52.966"/>
	</g>
	<path style="fill:#BBD1B5;" d="M229.517,185.379h52.966c4.875,0,8.828,3.952,8.828,8.828v35.31H220.69v-35.31
		C220.69,189.332,224.642,185.379,229.517,185.379z"/>
</g>
<g>
</g>
<g>
</g>
<g>
</g>
<g>
</g>
<g>
</g>
<g>
</g>
<g>
</g>
<g>
</g>
<g>
</g>
<g>
</g>
<g>
</g>
<g>
</g>
<g>
</g>
<g>
</g>
<g>
</g>
</svg>
